<svg width="22" height="22" viewBox="0 0 22 22" fill="none" xmlns="http://www.w3.org/2000/svg">
<path d="M17.5998 2.93335H4.39977C3.58944 2.93335 2.93311 3.58968 2.93311 4.40002V17.6C2.93311 18.4103 3.58944 19.0667 4.39977 19.0667H17.5998C18.4101 19.0667 19.0664 18.4103 19.0664 17.6V4.40002C19.0664 3.58968 18.4101 2.93335 17.5998 2.93335ZM8.03271 16.1333H5.86937V9.17255H8.03271V16.1333ZM6.92904 8.17742C6.23164 8.17742 5.66771 7.61202 5.66771 6.91608C5.66771 6.22015 6.23237 5.65548 6.92904 5.65548C7.62424 5.65548 8.18964 6.22088 8.18964 6.91608C8.18964 7.61202 7.62424 8.17742 6.92904 8.17742ZM16.136 16.1333H13.9742V12.7483C13.9742 11.9409 13.9595 10.9025 12.85 10.9025C11.7243 10.9025 11.5512 11.7817 11.5512 12.6896V16.1333H9.38937V9.17255H11.4647V10.1237H11.494C11.783 9.57662 12.4884 8.99948 13.5408 8.99948C15.7312 8.99948 16.136 10.4412 16.136 12.3156V16.1333Z" fill="#FBFAF6"/>
</svg>
