<svg width="18" height="18" viewBox="0 0 18 18" fill="none" xmlns="http://www.w3.org/2000/svg">
<path d="M5.3321 0.199951C2.50216 0.199951 0.200195 2.50405 0.200195 5.33472V12.6681C0.200195 15.498 2.50429 17.8 5.33496 17.8H12.6683C15.4982 17.8 17.8002 15.4959 17.8002 12.6652V5.33185C17.8002 2.50192 15.4961 0.199951 12.6654 0.199951H5.3321ZM14.1335 3.13328C14.5383 3.13328 14.8669 3.46182 14.8669 3.86662C14.8669 4.27142 14.5383 4.59995 14.1335 4.59995C13.7287 4.59995 13.4002 4.27142 13.4002 3.86662C13.4002 3.46182 13.7287 3.13328 14.1335 3.13328ZM9.0002 4.59995C11.4268 4.59995 13.4002 6.57335 13.4002 8.99995C13.4002 11.4266 11.4268 13.4 9.0002 13.4C6.5736 13.4 4.6002 11.4266 4.6002 8.99995C4.6002 6.57335 6.5736 4.59995 9.0002 4.59995ZM9.0002 6.06662C8.22223 6.06662 7.47612 6.37566 6.92602 6.92577C6.37591 7.47588 6.06686 8.22198 6.06686 8.99995C6.06686 9.77792 6.37591 10.524 6.92602 11.0741C7.47612 11.6242 8.22223 11.9333 9.0002 11.9333C9.77816 11.9333 10.5243 11.6242 11.0744 11.0741C11.6245 10.524 11.9335 9.77792 11.9335 8.99995C11.9335 8.22198 11.6245 7.47588 11.0744 6.92577C10.5243 6.37566 9.77816 6.06662 9.0002 6.06662Z" fill="#FBFAF6"/>
</svg>
