<svg width="16" height="18" viewBox="0 0 16 18" fill="none" xmlns="http://www.w3.org/2000/svg">
<path d="M14.3234 4.5715C13.4912 4.39348 12.7375 3.9543 12.1724 3.31797C11.6073 2.68163 11.2602 1.88143 11.1817 1.034V0.666504H8.31088V12.0598C8.3091 12.5642 8.14933 13.0554 7.85401 13.4643C7.55869 13.8732 7.14268 14.1793 6.66442 14.3396C6.18616 14.4999 5.66971 14.5063 5.18762 14.3579C4.70554 14.2095 4.28207 13.9138 3.97671 13.5123C3.66662 13.1042 3.4946 12.6078 3.4856 12.0953C3.47661 11.5827 3.6311 11.0807 3.92669 10.6618C4.22227 10.243 4.64357 9.92925 5.12951 9.76602C5.61544 9.60278 6.14073 9.59858 6.62921 9.754V6.83734C5.53992 6.68675 4.43081 6.88041 3.45701 7.39123C2.4832 7.90204 1.69341 8.70446 1.19811 9.68624C0.702812 10.668 0.526772 11.7801 0.694617 12.8668C0.862461 13.9536 1.36579 14.9607 2.13421 15.7473C2.86701 16.4971 3.80662 17.0116 4.83309 17.2249C5.85957 17.4383 6.92635 17.341 7.89725 16.9454C8.86816 16.5497 9.69916 15.8738 10.2842 15.0037C10.8692 14.1337 11.1816 13.1091 11.1817 12.0607V6.239C12.3419 7.06845 13.733 7.5132 15.1592 7.51067V4.65817C14.8783 4.65852 14.5982 4.62947 14.3234 4.5715Z" fill="white"/>
</svg>
